<svg xmlns="http://www.w3.org/2000/svg" id="Layer_2" viewBox="0 0 60.33 74.26"><defs><style>.cls-2{fill:#161615}</style></defs><g id="Group_2"><path id="Path_10" d="M60.33 44.1c0 16.66-13.51 30.17-30.17 30.17S0 60.76 0 44.1s13.51-30.17 30.17-30.17 30.17 13.5 30.17 30.16" style="fill:#e4453d"/><path id="Path_11" d="M36.04 39.3c.14.03-.01.03 0 .09.01-.03 0-.07 0-.09" class="cls-2"/><path id="Path_12" d="m36.08 40.12.03.05c.17-.08-.16-.12.11-.14-.01.03.04.08.11.07l-.06-.06s.02.03.06.01c-.04-.03-.08-.05-.12-.07h-.04.04v-.1s.03.03.04.01l-.05-.07s.07.02.09 0c.05-.07-.26-.11-.13-.15 0 0 .01.01 0 .02l.06-.02c-.25-.06 0-.17-.24-.24.11-.02.06.01.17.09l.08-.03s-.02.03 0 .06c.06-.02.06-.04.03-.08-.03-.03-.06-.07-.09-.1.04-.02.18.07.17-.02 0-.14-.19-.03-.19-.13.05 0 .1 0 .15-.01-.05-.15.08-.19.15-.25v-.08s-.09-.04-.04-.09c.01.03.02.06.04.09.06 0 .07-.07.09-.14s.04-.13.1-.13c0 .03.09.04.11.07.03-.05.06-.1.1-.14-.05.06 0 .13.01.2.03-.03.03-.07.06-.09 0 .03 0 .06.02.09.01-.03.03-.06.05-.08h-.03.04s0-.05-.02-.07h-.04l.12-.05-.08.04h.04l-.03.06h.04s-.01-.03-.02-.04c.07 0 .1 0 .13-.09l.03.1s.03-.04.04-.05v.14c.12.03-.04-.18.1-.16l.02.09s.02-.2.08-.1c.04-.07-.11-.11 0-.15q.045.06.12.09c.03-.05-.04-.11-.07-.09.19-.07.13.3.28.18-.05-.07.06-.18-.08-.18.07-.06.12.14.19.04l-.05.11s.05-.04.06-.05l-.02.09c.1-.15.12.1.21-.1-.07.15.06 0 .07.08-.09.09-.17-.05-.21.1.02.05.06-.02.07.03.02-.02.03-.02 0 0s-.05.04-.07.07c.06.1.14-.06.21-.08h-.1c.05-.14.05-.01.11-.12.02.09.1 0 .12.06h-.03c.1.04.01.28.04.3s.12 0 .14-.06c.05-.02-.14-.03.01-.17-.03.11 0 .11.05.11s.12 0 .12.1c-.09.03-.06.12-.14.13.05.02.08 0 .14-.03l-.04.06c.17-.06.12-.09.26-.05-.07 0-.05.1-.11.11.02.03.06.04.1.03h-.01c.1.08-.02.13.1.18l.03-.03c.17.08.17.29.25.41l.02-.06s.09.08.03.14c0 0-.03-.02-.03-.03-.04.01-.11.04-.12.08h.07l-.05.02s.1-.03.11.02c-.2.06 0 .22-.18.28.15.02.01-.09.15-.07-.02.02-.05.03-.06.06l.09-.02c-.04.15-.11.21-.09.33h-.02s-.02.07.06.08c-.04 0-.06-.02-.1 0 .23.07-.17.15 0 .19q-.12 0-.24.03v.09c.04.44-.01.88-.16 1.3v.02h-.01c0 .02-.01.03-.02.05s-.02.03-.03.05c.01.03.03.05.06.07-.02 0-.04-.03-.06-.04v.06s-.01-.02-.02-.03c-.01.02-.02.03-.03.05-.05.07-.1.12-.16.16.01.03.02.05.02.08-.11-.01-.21.09-.28.06-.07.03-.15.05-.23.06v.17c.04-.05.08-.16.12-.05-.03.06-.09.09-.08.17-.06-.13.07-.05 0-.15-.02 0-.03.05-.04.08.01-.06-.03-.09-.04-.12-.08 0-.12-.06-.2-.08 0 .01 0 .02 0 0h-.05a.6.6 0 0 0-.09.21c-.06 0-.04-.07-.1-.05.04.14 0-.02-.06.1-.06 0 0-.06 0-.1-.03.02-.05.05-.06.08 0 .02 0 .04.01.06-.02-.01-.02-.03-.01-.06.01-.09.12-.19.15-.3-.02 0-.04-.02-.06-.03l-.02.05h-.01l.02-.05-.05-.03q-.12.195-.18.42c-.04.07 0-.1-.03-.12 0-.14-.14.03-.16-.05l.05-.02-.03-.03c-.05.08-.17.02-.23.12-.05-.05-.09-.1-.13-.16.02.02.1.04.11-.02-.06-.05-.02-.04-.02-.11.11-.03.22-.08.31-.15l.05-.05s-.05-.04-.07-.06l-.03.02c-.09.06-.19.11-.28.16-.02-.07.18-.19.22-.21-.04-.07-.33.1-.35-.02l-.03.06s-.03-.1-.05-.11a1 1 0 0 1 .21-.09c-.07 0-.15.03-.22.05.02 0 .19-.1.22-.11 0-.02-.21.05-.23.09.09-.12.03-.07.15-.19-.07.02-.13.05-.19.1-.06-.02-.05-.06-.04-.08s.02-.05-.09-.04c.1-.02.2-.04.3-.07l-.22.11c.07.03.23-.06.37-.12l-.02-.04c-.13.02-.26.03-.39.04.03 0 .2-.05.22-.06-.16.05-.23-.12-.23-.2.06.01.08-.06.02-.08.03 0 .03 0 .03.02.11-.08-.26-.02-.13-.1 0 .05.06.05.12.03-.07-.03-.02-.13-.2-.08.03-.03 0-.05.1-.07-.04-.03-.08-.06-.13-.09.02 0 .08 0 .09-.03-.02.06.17.09.05.14.09-.03.19-.04.28-.04-.07-.09-.28-.12-.42-.18l.08-.1h-.05l.14-.03s-.06-.02-.05-.02h.05c0-.01-.02-.02-.03-.02h-.05c.01-.01.03-.01.05 0 .08 0 .15 0 .23.02h.02a.34.34 0 0 0-.29-.05l.08-.06a.6.6 0 0 1-.21-.13c.05 0 .09.02.12 0-.15-.06.18-.14.05-.15-.03-.05-.12-.02-.15-.05h.05l-.1-.04s.07.03.11 0c-.07-.07-.12-.12-.07-.17-.02-.08-.2.02-.17-.05.08 0 .17 0 .19-.05-.05-.03-.12-.03-.15-.07h.12s-.02-.05.07-.04c-.05-.03-.04-.05-.02-.06-.06-.06-.25.02-.3.02.1-.04.05-.09.2-.1" class="cls-2"/><path id="Path_13" d="M36.08 39.77" class="cls-2"/><path id="Path_14" d="M38.54 42.47s-.03 0-.05.01c0 0 .02 0 .03-.02h.02Z" class="cls-2"/><path id="Path_15" d="M38.22 42.87v.05l-.05-.11s.03.04.05.06" class="cls-2"/><path id="Path_16" d="M38.1 43.03c-.07.02 0-.05-.01-.09.06.01.01.05.01.09" class="cls-2"/><path id="Path_17" d="M36.63 42.57s0 .08-.04.09c0-.1-.1.05-.11-.05.1-.09.09-.05.16-.03" class="cls-2"/><path id="Path_18" d="M35.95 40.28h-.03l.07-.03s0 .02-.04.03" class="cls-2"/><path id="Path_19" d="M26.7 36.54c.14 0-.01.06 0 .21.01-.06 0-.15 0-.21" class="cls-2"/><path id="Path_20" d="M26.76 39.45c.01.06.03.12.04.18.13-.4-.19-.37.07-.55 0 .13.06.29.13.21l-.07-.19s.03.11.06.02c-.04-.07-.08-.15-.13-.21h-.04s.02-.03.04 0l-.02-.35c0 .07.04.08.04.02l-.06-.23c0-.02-.02-.05-.02-.08l.02.08c.03.07.07 0 .09-.1.05-.29-.27-.25-.13-.47v.07l.06-.11c-.13-.02-.12-.19-.12-.37s.02-.35-.11-.37c.12-.16.06 0 .17.22l.09-.17v.21c.08-.19.07-.41-.04-.58.05-.08.19.09.17-.17 0-.36-.2.04-.2-.17l.15-.14a.8.8 0 0 1 0-.37c.02-.09.06-.18.09-.26.05-.09.1-.18.17-.26.04-.05.06-.1.09-.16h-.01v-.02s-.03-.02-.03-.04.01-.05.14-.14c-.04.06-.07.11-.09.18v.02c.19-.15.4-.26.63-.32.18-.06.38-.06.56.01-.07 0 .14.14.15.18.17.05.33.14.47.25a.27.27 0 0 0-.21-.09.4.4 0 0 0-.11.05c.1.05.19.12.28.19-.06-.03-.13-.06-.1.02a1.1 1.1 0 0 1 .36.42q0-.075-.03-.15c.11.2.13.43.06.64-.03-.02-.05-.09-.08-.11.07-.1.04-.24-.06-.31.04.17.03.19.02.19s-.03-.02-.06.06c0 .05 0 .1.01.15 0 .03.02.05.03.07.02.03.07.05.11.03a.58.58 0 0 0-.02.43l-.1-.05.02.17-.11-.15c-.1.32.17.08.08.44h-.09c.02.14.18.19.06.29.05.14.14-.23.15.1-.06.08-.1.17-.11.27.04.1.11-.07.1-.14.03.48-.33.29-.21.73.07-.15.18.12.18-.23.06.17-.13.33-.03.5l-.12-.11c0 .06.03.12.06.17h-.09c.16.2-.06.4.16.51-.17-.08.02.16-.03.25-.13-.17-.03-.51-.19-.52-.04.09.04.16 0 .24.02.05.03.08 0 .01a.4.4 0 0 0-.1-.17c-.07.28.12.43.17.59l-.06-.29c.15.01.04.13.16.2-.07.15.06.26.03.38 0-.03-.02-.03-.02-.06.04.31-.19.44-.17.57s.13.35.17.25c.06.09-.12-.41.11-.26-.19.22.15.35.08.77-.12-.15-.1.13-.2 0 .02.11.09.2.18.25l-.06.07c.22.2.15.02.34.35-.09-.1-.06.17-.13.1.02.09.08.18.15.25h-.01c.05.09.09.2.1.32.01.11.06.21.13.28l.03-.05c.28.36.49.88.8 1.2-.02-.05-.05-.1-.06-.15 0 .06.23.2.27.35.01 0 .02.02 0 .02s0-.02 0-.02c-.02-.02-.06-.04-.08-.07-.05.06-.05.15 0 .21l.08-.02v.07c.1.12.03-.11.14.02-.05.11.08.24.21.37s.28.25.28.36c.09-.03.03-.08-.03-.13s-.11-.1-.02-.12c.02.06.05.12.1.16l.02-.09c.09.08.17.15.24.22l.2.17c.06.05.13.1.21.14q.12.075.27.12h-.02c.13.1.22.12.31.07.02.05-.1.03-.05.09.14-.05.3-.01.4.1.11.08.21.16.31.1-.03.08.03.17.08.26.12.02.25.04.38.05.4.01.72.35.7.75 0 .24-.14.46-.34.59-1.04.59-2.11 1.11-3.21 1.58-.01 0-.03.02-.04.03h-.03l-.2.08h-.02l-.24.1s-.04.06-.03.09c-.05 0-.01-.05-.02-.07h-.01l-.13.1s-.02-.03-.02-.04c-.1.04-.19.07-.29.11-.29.11-.57.21-.86.31 0 .03-.06.08-.1.12-.09 0-.21.03-.33.04-.06 0-.12 0-.18-.02a.5.5 0 0 1-.17-.07c-.05-.03-.09-.07-.13-.11a1 1 0 0 1-.08-.12c-.02-.03-.03-.07-.04-.11-.14-.3-.08-.66.16-.89 0-.06 0-.12-.04-.18-.06.08-.11.17-.15.26l-.06.12c-.01.03-.04.05-.07.05 0-.1.03-.19.07-.28s.08-.17.06-.2c.12 0 .05.05.01.11s-.08.11.03.06a.8.8 0 0 0 .12-.19c-.02.05.02.05.06.04h.12c.3-.12.47-.1.78-.2-.01 0-.02 0 0 0 .06-.02.13-.04.19-.06.07-.11.12-.24.06-.28.17-.07.2-.01.33-.11-.28-.02.05 0 .03-.13.14-.07.07.04.15.04.02-.02.06-.09.05-.12a.17.17 0 0 0-.1 0c.07-.02.1-.01.1 0 .11.05-.03.25.03.34l.23-.09-.02-.04.04-.02v.05l.23-.09a.95.95 0 0 0-.27-.38c0-.04.03-.03.09-.02s.12.03.13.03c.08.03.11 0 .12-.05s0-.08.05-.08c0 .02.01.05 0 .07.04.02.13-.07.09-.1.05.02.1.05.14.08.05.04.11.07.17.08.13-.05.17-.13.11-.18-.1-.06-.22-.1-.34-.1.03.04.04.09.02.14-.14-.05-.02-.11-.25-.15l.08-.02h.04s.04-.02.03-.02c.05.03.11.04.17.03.05-.03.09-.01.15-.04l.17.02.12.03c.07.03.14.06.2.11l.04.04c.11-.05.22-.1.33-.16H32c-.12-.02-.24-.03-.34-.04-.25-.03-.44-.04-.53-.04-.03-.04.39-.06.51-.04-.15-.07-.32-.1-.49-.1s-.29 0-.35-.05v.06c-.05 0-.12-.11-.15-.07.03-.05.08-.19.16-.19-.05 0-.11.01-.16.02h-.19s.13-.16.17-.17c-.09-.07-.29.05-.25.12-.11-.25-.11-.15-.16-.4-.06-.03-.12.15-.09.2a.5.5 0 0 1-.26-.21.235.235 0 0 0-.24-.13c.11-.03.22-.07.33-.11l-.1.24c.17.09.26-.07.34-.2-.04-.04-.09-.08-.13-.11-.18.01-.36.02-.54.02.07-.03.14-.07.2-.12-.15.09-.62-.37-.79-.63l.03.04c.08.01-.05-.22-.16-.28.04 0 .04.02.07.06-.02-.24-.37-.07-.37-.34.1.17.17.17.22.12-.14-.1-.29-.44-.41-.27-.02-.11-.09-.18 0-.22-.1-.09-.2-.19-.3-.29.03.02.09.01.05-.1.08.21.34.3.3.46.1-.06.12-.16.26-.12-.23-.24-.5-.45-.79-.61-.03-.12-.05-.25-.08-.38h-.06l.1-.11s-.08-.05-.08-.06.03 0 .06 0a.2.2 0 0 0-.07-.07c-.02 0-.03.02-.04.04 0-.05.01-.05.04-.04.06-.04.16-.01.26.02 0-.01 0-.03.01-.04-.15-.12-.32-.28-.35-.1v.16-.39c-.15-.12-.27-.27-.36-.43.04-.03.1.04.12-.03-.22-.17.03-.58-.11-.59-.08-.17-.13-.05-.2-.15.02 0 .05 0 .04-.03l-.12-.12c.02-.06.09.11.1-.05-.12-.18-.19-.4-.19-.62-.07-.31-.17.16-.19-.11.1-.05.17-.15.16-.26-.06-.08-.12-.06-.18-.21h.12c-.02-.14-.05-.25.04-.26a.3.3 0 0 1-.04-.25c-.08-.21-.24.17-.28.22.08-.22.01-.36.16-.48" class="cls-2"/><path id="Path_21" d="M26.71 38.2v-.03l.11-.03z" class="cls-2"/><path id="Path_22" d="m29.88 49.8-.17.03.11-.03h.05Z" class="cls-2"/><path id="Path_23" d="M28.07 49.89s-.06-.05-.09-.07l.11-.04s-.03.08-.02.12" class="cls-2"/><path id="Path_24" d="M28.02 58.39c-.05.02-.1.03-.16.03-.15-.08-.36-.05-.47-.21.21.04.42.1.63.17" class="cls-2"/><path id="Path_25" d="M27.84 49.21c.07-.31.04.04.08.06-.05.21-.06-.02-.08-.06" class="cls-2"/><path id="Path_26" d="M30.72 47.17c.09-.04.19-.04.28 0h.08H31c-.08 0 0 .03-.1.03.03-.04-.19.01-.17-.03" class="cls-2"/><path id="Path_27" d="M26.73 40.01c0 .07 0 .1-.03.13h-.03z" class="cls-2"/><path id="Path_28" d="M18.44 40.24c-.01-.32.09-.63.28-.88.29-.37.77-.55 1.23-.44 1.07.28.88 1.76.74 2.58-.08.49-.2 1.09-.69 1.33-.49.21-1.05 0-1.28-.49a2.98 2.98 0 0 1-.27-2.11" class="cls-2"/><path id="Path_29" d="M19.8 54.42c-.04.14-.16-.13-.51-.38.16.13.36.25.51.38" class="cls-2"/><path id="Path_30" d="m16.13 51.15-.03.14-.04-.22.06.08Z" class="cls-2"/><path id="Path_31" d="m12.89 46.22.1.33a.9.9 0 0 1-.14-.35z" class="cls-2"/><path id="Path_32" d="M17.93 56.29c-.46-.45-.15.02-.66-.46-.07-.22.09-.06.44.18.06.03.13.07.18.12q-.105-.06-.18-.12c-.08-.04.01.05.11.14s.19.18.11.15" class="cls-2"/><path id="Path_33" d="M22.01 58.82c-.13-.05-.26-.11-.38-.19l.38.12v.06" class="cls-2"/><path id="Path_34" d="M23.44 59.48s-.02-.03-.02-.05l.06.06s-.03 0-.04-.01" class="cls-2"/><path id="Path_35" d="M24.72 59.87c.09.05.18.1.27.13-.23-.08-.29-.11-.27-.13" class="cls-2"/><path id="Path_36" d="M25.81 60.14v-.02h.03c.25.12.14.07-.03.02" class="cls-2"/><path id="Path_37" d="M32.82 60.9c-.75.04.05-.05.1-.1.54-.03-.04.06-.1.1" class="cls-2"/><path id="Path_38" d="M34.36 60.66v-.12q.135.045.27.03z" class="cls-2"/><path id="Path_39" d="M53.27 47.88c-.85-.46-1.64-1.02-2.35-1.67a31.1 31.1 0 0 1-6.25 9.17c-.3.29-.61.57-.92.83-.03.02-.05.05-.07.07-.03.02-.05.04-.07.05-.43.36-.87.69-1.32 1-.07.07-.11.12-.11.15-.11.06-.04-.02-.02-.06-.05.03-.1.07-.15.1l-.29.23s-.03-.02-.03-.03c-.49.31-.99.6-1.5.86-.12 0-.24.02-.36.04-.03 0-.06.07-.05.11 0 .02.02.03.03.04-.38.18-.77.35-1.16.51h-2.36c-.09 0-.18.05-.23.14H34.8q-.11.06 0 .14c.02.07.07.12.14.14h.27c.07-.01.13-.06.15-.13h1.4c0 .06.03.13.05.19.01.03.07.03.11.04.02-.03.02-.07.03-.11a.7.7 0 0 0-.05-.13h.42v-.15h.98l-.18.07c-.11.08-.24.15-.36.21-.11.03-.22.06-.35.09.02-.02.03-.05.04-.08h-.14v.1q-.255.075-.54.15c-.36.1-.74.18-1.09.26-.32.08-.64.14-.97.18h-.02c0-.09-.02-.18-.04-.27.08-.03.13-.12.1-.2v-.02c-.05-.09-.13-.16-.22-.12-.12.06-.28.02-.38.17.07.14.1.3.08.45l-.07.07c-.38.05-.76.1-1.15.13s-.12-.03-.19-.03c-.02 0-.04.02-.06.05-.5.03-1 .05-1.51.05-.15.05-.24.1-.24.16l.38-.03c.14-.02.29-.04.44-.05.2-.04.41-.03.6.03-.4.03-.81.09-1.2.18-.22-.08-.02-.08.17-.08s.35-.02.06-.07q-.285 0-.57.06c.2-.05-.27-.1-.35-.14-.42-.01-.84-.06-1.25-.13-.16-.02-.33-.05-.5-.07l-.14-.07s-.04 0-.06.01v.03c-.18-.04-.38-.07-.59-.11.03.02.04.02-.02 0h.01c-.22-.04-.45-.08-.67-.13h-.24c-.23.01-.38.05-.29.11l-.08-.02v-.01c0-.06.03-.14 0-.18-.06-.06-.13-.11-.2-.16v.26c0 .02 0 .03.01.04-.27-.07-.38-.12-.61-.18.05 0 .08-.05.08-.1s-.07-.11-.13-.14a.6.6 0 0 0-.19-.05.27.27 0 0 0-.34-.09c-.08.03-.16.07-.23.11-.11 0-.22-.03-.32-.08.14-.02.36-.03.35-.1-.11-.04-.23-.07-.35-.11-.13-.04-.26-.09-.39-.14.01-.19 0-.39-.07-.58-.03-.06.04-.17.07-.25l.14-.14c-.17-.02-.35-.03-.52-.05-.12-.02-.12-.02-.18.19l.21.25c-.03.07-.06.13-.1.19-.06.1-.2.14-.3.08-.02-.01-.04-.03-.05-.04-.07-.06-.12-.13-.18-.2-.02-.09-.02-.21-.08-.26-.16-.15-.17-.38-.3-.55-.11-.02-.22-.04-.34-.05-.13-.02-.19-.21-.36-.14-.02.21-.08.41-.18.59l-.14.27v.03c-.29-.17-.6-.3-.92-.41 0-.05.48 0 .28-.16q-.57-.345-1.2-.57l-.14-.05s-.01-.1-.03-.14c-.03-.07-.11-.13-.18-.19-.02-.01-.04-.02-.07 0-.02 0-.05.03-.05.05.01.07.03.14.05.22-.1-.02-.16-.01-.16.02l.19.11c.04.12.15.12.26.14l.23.11.48.23s-.05.02-.07.03c-.16-.07-.36-.17-.51-.22-.02-.06-.06-.12-.12-.14v.1c-.04 0-.07 0-.08.02-.39-.27-.77-.54-1.16-.82.15.1.62.38.48.21-.5-.33-.25-.18-.55-.47q.285.135.57.24c.22.08.44.16.67.23.06.02.13.04.19.06-.33-.21-.66-.43-.98-.66l-.08-.02c-.36-.11-.66-.17-.79-.2-.42-.35-.12-.41 0-.37-.17-.13-.34-.25-.52-.35-.13-.07-.26-.13-.4-.19s-.27-.12-.4-.2c-.18-.11-.34-.25-.49-.4l.26.31c-.2-.16-.85-.82-.8-.72-.11-.19-.14-.44.05-.29l-.82-.53c.11.08.18-.11.25-.09-.26-.27-.6-.33-.46-.13-.22-.32-.43-.66-.61-1.01-.15-.16-.14.14-.04.28-.25-.23-.47-.5-.66-.79l-.02-.02c-.14-.24-.33-.44-.55-.6.19.08.37.16.57.23l-.02.36.02.03c.4.4.47.21.54.06-.12-.15-.24-.29-.35-.44l-.28-.19-.76-.53c.1.03.2.04.3.02-.34-.26-.63-.58-.85-.95-.37-.51-.71-1.05-1.02-1.6l.08.13c.08.07 0-.08-.09-.29-.1-.21-.22-.42-.36-.61.06.03.09.11.16.24-.04-.14-.11-.26-.19-.38-.03-.05-.07-.09-.11-.14l-.08-.06s-.09-.06-.13-.1a.5.5 0 0 1-.09-.24c.03.1.09.18.16.26.04.03.07.02.09-.01-.07-.11-.14-.22-.2-.33l-.1-.17-.04-.07s-.02-.06-.03 0c-.05.11-.06.23-.04.35-.07.06-.13.22-.17.09l-.13.35-.14.28c-.03.06-.08.12-.12.19-.05.06-.11.12-.17.17.05-.05.09-.11.06-.11s-.09.05-.26.12c-.03.01-.06.03-.1.04.04-.01.07-.03.1-.04.18-.09.34-.24.44-.42.04-.07.08-.15.11-.22l.03-.05.02-.04.03-.07c.07-.18.16-.37.23-.37 0-.06-.03-.13-.07-.18-.02-.05-.03-.11.03-.34-.14.31-.27.58-.36.8l-.15.34c-.03.06-.06.12-.1.18s-.09.11-.14.16a.98.98 0 0 1-.81.21c-.3-.05-.57-.22-.74-.48a.9.9 0 0 1-.07-.23c-.02-.08-.02-.16-.02-.24v-.12s.03-.07.04-.11l.03-.11.05-.1c.05-.1.11-.19.18-.28.06-.08.11-.15.16-.23l-.02-.07.22-.1c.02-.09.04-.17.08-.25.02-.02.02.02.01.08.04-.09.08-.18.1-.27-.03 0-.06.02-.07.04.07-.11.09-.1.07-.04.09 0 .07.21.03.44l.07-.08c.18-.53.33-1.15.05-.74-.08.13-.16.25-.24.37.1-.17.18-.29.24-.37.12-.19.23-.38.34-.58.08-.39.1-.55.14-.73s.08-.38.15-.84c.06-.04.03.22.11.06.01-.19.04-.37.09-.55l.04-.14v-.03l.03-.05.04-.1c.02-.07.06-.13.1-.18.04-.06.09-.11.14-.15.18-.14.4-.21.63-.2.07 0 .14 0 .21.02h.13c.08.02.15.05.22.08.05.02.09.04.14.06.04.03.09.04.13.05q.045 0 .09.03c.07.05.14.11.18.19-.03-.02-.08-.05 0 .09.12.2.18.42.17.65-.04.13-.03-.02-.04-.12 0-.05-.01-.08-.02-.05 0 .03-.02.06-.02.09-.01.06-.02.12-.04.17-.05.41-.12.82-.22 1.22.08.07.14.16.19.25.02.04.05.08.06.12s.02.04.03.06c.02.04.04.07.05.09.03.05.05.07.06.08s.02-.05.02-.12c-.01-.13-.04-.27.13.1-.05.26 0 .53.15.75.17.17.32.35.45.55l-.12.03c.2.38.39.66.31.71.16.2.29.42.4.66.38.52-.03-.53-.05-.69.11.3.24.53.34.74.1.18.18.38.22.58l-.32-.46c.14.34.33.65.57.92.15.15.25.34.27.55-.23-.34-.55-.72-.47-.48.12.16.25.31.38.46.01.08-.21-.27-.09-.02.15.17.32.33.49.48h.06c.04.07 0 .05-.06 0h-.01l.6.78.05.07-.05-.07c-.08-.09-.11-.08-.01.06l.49.51s.09.08.17.16c-.06-.06-.11-.11-.17-.16-.16-.15-.05.05.14.3.15.22.36.4.6.53.2.09.36.25.46.44-.07-.07-.09-.08-.16-.15l.21.3c.12-.06.49.32.88.68s.8.69.91.62c.31.41-.01.07-.59-.26l.36.41c-.17-.14-.3-.27-.49-.41.39.45.88.82 1.42 1.07.19.2-.29.02.35.46.11.1.25.17.39.22.05 0 .03-.03 0-.08-.06-.1-.17-.22.11-.05l.32.38c.19.1.36.2.52.3s.32.19.47.28c.3.19.57.39.88.56q.12.06.27.09h.03s-.1-.15.27.04l-.27-.05h-.03q.24.15.51.27c.18.07.36.13.54.19.35.12.68.23.94.35-.14-.02.27.19.33.25l.49.14.5.11c-.44-.1-.45-.02-.55.03.31.09.47.09.68.15-.14-.01-.27-.03-.12.06l.54.1c.18.04.36.05.54.07-.09-.04-.18-.07-.28-.09.13.03.33.07.54.11-.03 0-.06.02-.09.04s-.05.05-.08.07h-.01l-.1.12-.14-.14h-.28c-.14.14-.15.18-.08.26.06.06.13.12.2.17v.07c0 .12-.07.23-.18.28-.14.07-.2-.05-.28-.13-.04-.05-.11-.05-.16-.01l-.02.02c-.06.07-.04.22.02.25.15.06.3.13.45.18s.23-.01.34-.15c.15-.18.07-.35 0-.52l.35-.07c.1.09.04.22.08.32.03.06.08.11.13.15l.14-.13c.17-.08.29-.24.32-.43h.25c.11-.02.13-.06.07-.1.33.09.66.15 1 .17h.37l-.13.09.56.03-.46.08c1.07.18.21-.13 1.39-.02v.09c.18-.01.35-.04.53-.07q.225-.06.45 0c.44-.07-.76-.11.28-.16.29.05.58.07.88.05.33-.08-.26-.08-.47-.06 1.54-.19 1.01.25 2.38-.11-.49.02.36-.24-.75-.05.26-.06.53-.09.8-.1.26-.02.52-.08.76-.18l-.3.19q.27-.075.51-.18l-.02.1c.15-.07.31-.14.47-.18.15-.06.3-.1.44-.14.25-.05.49-.16.68-.32-.21.27.47-.21.75-.26-.14.09-.29.17-.44.24q-.24.12-.51.21c-.33.11-.6.21-.62.3.27-.04.48-.19.74-.23l.15-.07s0 .02-.11.07h-.05c-.16.08-.31.16-.46.26.2-.05.39-.1.58-.17.15-.07.3-.14.45-.23l.72-.44c-.28.15-.57.27-.86.41.01-.17.38-.19.58-.4.06-.01.11-.03.17-.05.05-.02.1-.04.15-.07q.15-.075.27-.15.24-.165.51-.27c-.09.05-.09.06-.18.11.11-.06.22-.11.32-.16l.26-.13c.14-.06.28-.12.43-.17.21-.05.42-.13.61-.24.35-.22.92-.74.66-.63.24-.23-1.1.85-.73.34.32-.11.61-.29.83-.54.14-.14.3-.29.49-.45.09-.08.2-.16.31-.25s.23-.19.36-.28c-.36.45.33-.14 0 .26.23-.2.43-.45.59-.71l.18-.08c.11-.16.2-.33.28-.5.04-.09.15-.2.51-.7-.22.35.4-.3.23-.04q.315-.345.54-.75l-.02.04c.47-.55.89-1.12 1.28-1.72l-.1.07c.74-1.28 1.74-2.87 2.37-4.27l-.26.43-.02.04.02-.04c.05-.1.15-.3.25-.54.06-.14.12-.28.19-.42.03-.07.07-.14.1-.19.01-.02.03-.04.05-.06 0-.02.01-.03.02-.02 0 0-.01.02-.02.02s0 .04-.02.06v.03l-.03.04s-.02.05-.03.07c.02 0 .07-.03.14-.1a.7.7 0 0 0 .15-.19l-.02-.02a1 1 0 0 1-.08-.03c0-.02.01-.05.01-.08-.09-.11-.12-.11-.11-.05 0 .01 0 .03-.02.03s-.02-.02-.03-.03a.6.6 0 0 1-.1-.13c-.2-.45-.43-.87-.71-1.28-.16-.27-.3-.55-.42-.83-.03-.07-.05-.13-.08-.19 0-.03-.02-.06-.03-.08s-.02-.07-.03-.11a.65.65 0 0 1 0-.34c-.03-.13-.05-.11-.07 0v.21c.02.09.05.17.08.25.11.25.23.49.07.32-.03-.08-.04-.15-.07-.24-.01-.04-.03-.08-.06-.18-.01-.04-.03-.09-.04-.14s0-.12-.02-.18c-.03.07-.05.13-.07.2-.06-.31 0-.63.19-.88.15-.21.36-.37.6-.45.24-.09.49-.08.72.02a.9.9 0 0 1 .47.47c.02.04.04.07.05.11l.04.1c.03.06.06.13.08.19.06.13.12.25.19.38q.225.435.51.84l-.05-.04c.15.32.38.6.67.81.04.11-.22-.17-.12.01q.285.21.51.48c.15.16.29.34.42.5.21.3.48.55.81.72-.08.04.06.25.19.44.34.24.68.45 1.04.65.81.44.09 1.69-.73 1.24" class="cls-2"/><path id="Path_40" d="m51.84 19.55.31-.36c.08-.32-.09.06-.31.36" class="cls-2"/><path id="Path_41" d="M49.72 21.8c.47-.48.9-.99 1.28-1.54-.52.43-.95.95-1.28 1.54" class="cls-2"/><path id="Path_42" d="m50.53 20.97-.34.54.33-.42v-.12Z" class="cls-2"/><path id="Path_43" d="m50.19 21.64.69-.82-.08.05z" class="cls-2"/><path id="Path_44" d="M48.21 22.92c-.73.57.03.1-.3.47l.52-.48c.57-.36-.23.4.15.16.66-.61.08-.37.9-1.11-.13 0-1.29 1.22-1.28.97" class="cls-2"/><path id="Path_45" d="m40.22 23.71-.36.37c.06-.04.11-.08.17-.12l.19-.24Z" class="cls-2"/><path id="Path_46" d="M36.24 10.75s-.01-.05-.03-.07v.16z" class="cls-2"/><path id="Path_47" d="M27.32 26.5c-.19-.1-.34-.24-.49-.34.15.14.31.25.49.34" class="cls-2"/><path id="Path_48" d="m33.04 11.72.12-.14-.17.16.03-.02Z" class="cls-2"/><path id="Path_49" d="M38.18 27.15c-.17-.02-.33-.03-.5-.03.16.05.33.06.5.03" class="cls-2"/><path id="Path_50" d="M43.32 12.01c.03-.06-.1-.35 0 0" class="cls-2"/><path id="Path_51" d="m30.39 16.98.02-.06s-.03.03-.02.06" class="cls-2"/><path id="Path_52" d="M25.13 16.34c.03-.26.11-.41.15-.66-.07-.58-.17 1.15-.18.32-.03.21-.05.42-.06.62l.2-.33c.03-.49-.1.32-.11.04" class="cls-2"/><path id="Path_53" d="m34.8 13.81.06-.1c-.09.05-.08-.03-.3.36-.07.38.32-.09.13.56.06-.16.14-.31.22-.45-.2.21-.17-.07-.11-.37" class="cls-2"/><path id="Path_54" d="m34.92 14.17.07-.07c.04-.09.09-.17.13-.24-.08.1-.15.21-.22.32h.01Z" class="cls-2"/><path id="Path_55" d="M28.98 25.39c.1.04.21.08.32.1-.11-.04-.21-.07-.32-.1" class="cls-2"/><path id="Path_56" d="M36.63 7.75c.01-.1.03-.2.04-.31v-.2z" class="cls-2"/><path id="Path_57" d="M25.03 16.66h.01Z" class="cls-2"/><path id="Path_58" d="M36.15 11.12c-.11.23-.19.48-.23.74.08-.25.15-.49.23-.74" class="cls-2"/><path id="Path_59" d="M36.21 10.93c-.02.06-.04.13-.06.19.02-.06.04-.13.06-.19" class="cls-2"/><path id="Path_60" d="M45.8 25.24c.61-.45.95-.9 1.45-1.19.4-.22-.15.32-.33.52.58-.43.31-.55.97-1.07-.37.25-.35.14-.19-.08-.38.31-1.21.88-1.01.85l.15-.09c0 .08-.2.25-.29.35-.54.39-.31.1-.45.14-.94.58.06.25-.81.79l-.14.03c-.38.31-1.06.67-1.11.85-.47.07-1.04.54-1.54.62-.19-.24 1.63-.62 2.04-1.1-.5.19.2-.27.34-.46-.45.32-.93.62-1.41.9-.31.01-.62.11-.89.28l.12-.04c-.6.27-.4.32-.96.47-.09 0 .06-.1.1-.14-.51.12-.4.18-.74.31-.52.09.23-.19-.21-.12-.47.15-.97.22-1.46.18.12.09-.4.17-.81.23s-.72.07-.15.2q-.66.03-1.32-.03c-.38-.16.92-.11.59-.32.33.04.67.06 1 .07a3.7 3.7 0 0 0-1.19-.13c-.48-.02-.94-.14-1.37-.34l.03-.02.27.07s-.05.06 0 .05l.05-.03.15.05c.31.09.64.11.96.08-.32-.13-.37-.34-.84-.2l.08.05a.8.8 0 0 0-.22-.06c.18-.12.34-.22.26-.23-.12.06-.23.13-.33.2-.09-.02-.17-.05-.27-.07.56-.37 1.09-.79 1.58-1.25.21-.13.41-.27.6-.41-.74.62.15.15-.84.86.8-.54 1.53-1.2 2.16-1.93-.16.1-.19.01.04-.29.33-.28.64-.58.92-.92l-.33.57c.28-.3.51-.65.68-1.03.16-.05.7-.9.69-.69.33-.85.54-1.1.84-2.02-.47.89-.02-.29-.14-.21-.12.35-.26.7-.42 1.04.74-1.4-.21.47 0 .44-.41.62.22-1.03-.33.08.5-.98.88-2.02 1.12-3.09-.24.87-.04-.19-.24.25.31-1.09.14-.25.34-.57.17-.45.27-.92.28-1.41.19-1.01.1.17.24-.33a6 6 0 0 1-.28 1.52c-.16.61-.31 1.14-.1 1.06-.15.65-.35 1.28-.6 1.9.44-.72.77-1.51.97-2.33l-.19-.1c.17-.62.06-.78.17-1.23 0 .25.2-.16.25-.68-.05.14-.07.35-.1.29q.105-1.125-.03-2.25c-.03.67-.14 1.33-.33 1.97-.12-.25.08-.6.08-1.11.01.08.01.18.05.04-.01-.18-.02-.36-.04-.54.03-1.16.22.15.25-.82-.01-.49-.1-.98-.25-1.45 0 .04 0 .08-.01.11-.03-.11-.04-.2-.06-.26-.13-.49-.39-.95-.75-1.33-.13-.23-.32-.43-.53-.58-.29-.24-1.03-.66-1.5-.95h.04c-.76-.29-1.39-.35-1.2-.4-.42-.06-.85-.07-1.28-.06l.13-.15c-.11.01-.2.03-.29.04.18-1.15.17-2.32-.04-3.47a6.9 6.9 0 0 0-1.02-2.46A6.53 6.53 0 0 0 29.92.21V.14a7.3 7.3 0 0 0-3.33 2.02c-.79.83-1.46 1.76-1.99 2.77-.07-.06-.14-.13-.22-.19-.72-.5-1.58-.74-2.45-.7-.45.1.33.08-.02.2-.48.04-.95.13-1.41.28.53-.09.43-.13.38-.06.29-.11.6-.18.92-.21.05.01-.06.03.03.05.37-.06.75-.05 1.12.03-.52 0-1.04.04-1.55.11.12-.04.24-.06.36-.07-.38.04-.76.12-1.13.23-.56.18-.41.18-.51.15-.56.22-1.06.56-1.47 1 .28-.32.6-.6.95-.83-.2.04.48-.47.11-.24-.36.23-.68.5-.97.82l.09-.18c-.21.14-.38.33-.48.56-.06.14-.17.27-.39.66.05.12.11-.07-.12.56.16-.45.4-.87.7-1.24-.4.66-.74 1.34-1.03 2.05-.12-.24.35-1.16.49-1.63l-.42.57.09.08c-.14.29-.25.59-.34.9v-.06c.02.16 0 .32-.07.47-.02.04-.08.12-.06.02-.03.22-.03.44-.05.67-.06-.4-.12.57-.22.46-.09.79-.07 1.59.06 2.37.1.62.19 1.21.29 2.11 0-.3.31.52.45 1.05.05.32.05.4-.06.22.08.23.17.45.27.67.19 1.03.52 2.03 1 2.96l-.08-.04c.27.42.56.87.91 1.53l-.17-.06c.39.84.56.48 1.05 1.36.09-.07-.2-.64-.15-.78 0 .27.61 1.17.55.91.64.77.42.55.45.64.14.14.29.27.44.4.48.53.04.28-.2.13.28.22.55.48.84.75-.07.12-.14.24-.22.37l-.02-.05a5.33 5.33 0 0 1-2.3 2.11c.15-.05.3-.11.44-.17-.13.14-.63.33-.88.52 0-.06-.68 0-.42-.12-.43.25-.93.35-1.42.29-.51-.06-1.01-.15-1.51-.27-.23-.2.03-.17.13-.18.6.3.82.4 1.18.36-.55-.08-.89-.33-.79-.34a3 3 0 0 1-1.12-.43c-.39-.23-.73-.5-.89-.56-.24-.38-.46-.74-.26-.7-1.13-1.48.18 1.03-1-.76-.38-.92.62.74-.01-.45l.14.2c-.17-1.01-.55-.48-1.01-1.51.11-.21.43.66.24-.1-.45-.71-.81-1.47-1.08-2.27l.12.13c-.21-.62-.48-1.88-.62-2.52.03-.04.04.06.08.18-.16-1.2-.2-.48-.23-1.48L11 15.6c0 .7.1 1.4.32 2.07-.24-.6 0 1.02-.23.75l.09.11c.21 2.02.84 3.98 1.84 5.75.44.54.8 1.01 1.2 1.48.43.53.97.95 1.59 1.23.14-.03.29 0 .41.08.35.19.74.32 1.14.37-.69-.1-.12.15.33.25.27-.05.59-.03.9-.09.39.04.79.02 1.17-.07.47-.09.92-.3 1.3-.6.75-.35-.13.16-.27.28.34-.08.56-.39.81-.5 0 0 0 .03-.06.09.83-.57 1.57-1.28 2.18-2.08.14.09.29.17.44.23.2.09.4.16.61.2.34-.09-.26 0-.73-.35-.1-.03-.2-.06-.3-.1l.05-.06c.09.05.16.11.25.16.42.14.85.24 1.29.29h.25c.1.11.19.22.29.32.71.62.41.11 1.07.55.25.24.93.62.89.7-.6-.3-.32-.05-.54-.14.99.69 2.13 1.14 3.32 1.34-.27-.09-.53-.2-.78-.31.22.04.44.09.66.16l.65.12c-.16.03.34.23.03.21 1.08 0 1.49 0 1.87.01.54.06 1.09 0 1.61-.19.19-.15.4-.28.62-.38.21.07.44.14.7.23q-.33-.105-.63-.27l.03-.02c.39.18.58.03.76.23.35-.03-.39-.15-.59-.3v-.03l.03-.02c.19-.01 1.03.32 1.5.35.03.1-.39.04.25.21.31-.04.62-.02.92.07 0-.09.74 0 1.11 0-.42-.02-1.01-.09-.74-.19.32-.06.59-.04 1.31-.11h-.5c.6-.22 1.04.02 1.87-.23-.33.17-.56.18-.86.33.58-.17 1.15-.37 1.71-.61.24-.03.49-.04.74-.09.05-.11.76-.3.71-.41.85-.31-.6.43-.67.52 1.09-.37.77-.52 1.81-.87l-.27.26c.33-.16.94-.58 1-.56-.02-.03-.17.08-.36.19.09-.3 1.34-1.02 1.09-1.15l-.42.25Zm-4.23-14.36c-.1-.07-.3-.24-.48-.39q.27.15.48.39m-1.93-1.02c-.05.03-.09.22-.07.17.53.08 1.04.23 1.51.46.83.8 1.31 1.89 1.33 3.04.07 1.17-.09 2.35-.47 3.46l.02.67c-.09.2-.22.39-.32.58a16.7 16.7 0 0 1-3.74 5.91c-.57.5-.42.21-.74.37-.66.48-1.07.77-1.49 1.04-.37.25-.77.44-1.19.59-.09-.09-.12-.15-.12-.18-.27-.15-.5-.3-.73-.46.12.03.24.07.35.14-.27-.3-.38-.33-.52-.36-.24-.12-.46-.3-.64-.51l.25.14c-.11-.11-.23-.19-.37-.26-.08-.1-.16-.19-.24-.28.05.26.17.5.35.7a5.2 5.2 0 0 1-1.4-2.79c.07.02.26.4.23.27-.06-.22-.13-.43-.22-.63l.12-.15c.07.31.2.6.38.85-.12-.29-.22-.62-.32-.93.02-.03.04-.05.06-.07l.17-.05c.97-1.42 2.33-2.85 2.77-4.17.41-.4.69-.91.83-1.46.12-.51.35-.99.68-1.4l-.07.04c.69-1.43 1.23-2.92 1.62-4.45a5.2 5.2 0 0 1 1.99-.27M33.4 25.28l-.1-.03zm-2.85-8.6.05-.12c-.04.3-.05.47-.05.12m.32 2.22c.06.78.21-.82.2.35.25-.8-.13-.44.03-1.3l.17-.54c.1.11-.08.9-.01.78 0-.13.02-.26.04-.38 0 .22-.05.81-.06 1.42h-.04l-.16.26c0-.09 0-.19-.02-.28-.01.11-.02.23-.02.35l-.08.14-.03-.13.08-.11s-.05.07-.08.1c-.06-.21-.07-.44 0-.66m2.81-6.59-.05.07s0-.08-.01-.11l.08-.05.19-.34a10 10 0 0 1 1.59-1.03c-.39.16-.39.16-.47.12 0-.15.03-.23.59-.53.04.07-.29.26.15.09-.23.07-.07-.08.17-.21-.02.11-.05.24-.1.44.12-.4.04.44.25-.34-.08.64-.26 1.27-.54 1.86-.04.17.04.05.07.1.37-.65.28-1.12.6-1.65l-.03-.49c.11-.04.23-.07.33-.1 0 .03-.02.06-.02.08h-.03c-.03.02-.01.02.03.01v.05c-.12.02-.24.06-.09.04v.02l-.15.43q0 .09-.03.18c.06-.2.13-.4.18-.6h.07c0 .05 0 .1.02.15l.03-.16.11-.02c-.09.49-.23.97-.4 1.44-.3.65-.57 1.24-.69 1.24l.29-.9c-.25.43-.38 1.15-.61 1.65a.4.4 0 0 0-.09.13c.02-.02.04-.03.05-.03-.04.1-.1.18-.17.26-.21.51-.44 1.01-.71 1.49h.12l-.02-.08c.22-.39.54-.9.46-.57-.14.48-.45.9-.88 1.17-.02-.27.47-.86.65-1.33-.28.2-.47.9-1.08 1.74.06-.44.59-1.03.55-1.31q-.405.87-.9 1.68c0-.13.41-.87.29-.87l-.32.45c.67-1.18-.3.09.18-.84-.31.39-.21.68-.68 1.22.17-.12.59-.54.28.08-.15.21-.3.42-.46.62-.24.22.28-.77-.05-.39l-.39.7c.06 0 .29-.3.22-.06-.3.35-.27.74-.53 1.23-.11.16-.23.3-.36.45 0-.08.01-.17.02-.25l.33-.51c-.1.16-.22.31-.32.46 0-.14.02-.28.03-.42.04-1.2.29-2.38.73-3.5.42-1.03.93-2.02 1.54-2.95m2.78-3c.06-.02.11-.03.19-.05-.01.02-.03.02-.04.03-.03.01-.06.03-.09.04-.02 0-.04 0-.06-.02m.2.78v.06c-.03 0-.07.02-.1.03l.02-.08.08-.02m0 .1v.07h-.1v-.05l.11-.02m0-.94c-.06.01-.13.03-.19.05-.03-.03-.05-.05-.07-.09.1-.02.19-.03.29-.02-.01.02-.02.05-.03.06m-.56.11h-.03v-.05l.05-.02s0 .05-.01.07m0 .05s0 .04-.01.06v-.05h.01m-.15.13c-.15.06-.31.12-.46.19-.51.21-.88.45-.69.37-.75.61-.54.39-.63.39.54-.43 1.14-.78 1.78-1.03zm-4.68 9.86v.17c-.05.05-.1.1-.15.14-.01.02-.03.04-.04.07 0-.09 0-.17-.01-.25l.21-.29v.14c-.05.07-.09.14-.14.2l.14-.17Zm-.33.29.08-.11v.27c0 .01-.02.03-.03.04l-.06-.2M26.36 6.16l.38-.61-.32.45c.14-.52.39-1.01.75-1.42.1-.26.24-.5.36-.76.15.02.42-.42.74-.7l-.11.26c.25-.26.54-.48.87-.65-.15.29-.39.28-.41.45l.47-.33c-.05-.06.22-.32-.16-.13.44-.63 1.12-1.04 1.88-1.13.62.03-.61.27-.33.36.17-.03.31-.07.44-.11.13-.01.25-.03.37-.06.2-.06.4-.1.6-.13.18-.03.35-.07.53-.09.19 0 .38.04.57.09.7.2 1.36.51 1.95.93-.32-.16.52.59.53.83l-.34-.26c.22.23.39.48.27.45.05-.07.25.2.5.57.1.2.2.43.3.65.08.23.15.46.21.64l.08-.16c.22.68.31 1.4.26 2.12 0 .52.04 1.03.1 1.54-.09.05-.19.1-.33.17-.01 0-.03 0-.04.01.09-.36.17-.73.22-1.11-.02-1.12-.23-2.24-.6-3.3-.44-.37.33.7.24 1.33-.02-.03-.04-.06-.04-.1 0 .05.01.1.01.14-.06-.43-.29-1.05-.45-1.11.19.63.42.4.41 1.28.05.53 0 1.07-.17 1.58.16.44.19.91.09 1.37-.02 0-.04.02-.07.03l-.03-.31c-.03.14-.05.25-.06.34-.71.29-1.36.72-1.92 1.26q-.18.135-.33.3c.13-.09.25-.19.39-.27-.34.3-.65.63-.91.99.09-.08.11-.09-.12.14l-.21.25c.05-.08.1-.16.17-.23l-.1.05c-.55.46-.58.9-.99 1.51.03-.06.08-.17.12-.24-.25.33-.7.78-.66 1a.8.8 0 0 0-.12.37l-.14.28.14-.27c-.04.19-.06.38-.1.39-.13.33-.27.66-.37 1-.08.22-.14.44-.17.67l-.1.16c-.08.38-.11.38-.12.33-.45 1.31-.22 2.08-.3 3.55.12.27.12-.34.16-.39.03.1.08.31.14.55-.07.09-.14.18-.21.26-.02-.07-.05-.13-.07-.19.02.09.04.14.06.21-.44.53-.91 1.04-1.29 1.46.46-.53-.14-.11-.5.08.59-.51.48-.64.37-.69-.34.31-.47.64-.26.53-.67.41-.36.44-.99.7-.4.18.1-.25-.06-.23-.68.39-.09.3-.87.61.03-.03.1-.06.03-.07l-.11.03c-.08-.12-.17-.24-.25-.35-.21-.34-.34-.64-.25-.65-.23-.36-.43-.74-.6-1.13.11-.62.41-.79.58-1.6l-.1.18c.15-.6.64-2.13.85-2.71.3-2.41.34-4.85.11-7.26a10 10 0 0 0-.83-3.09c.17-.28.34-.6.29-.25.32-.76-.14.06.01-.41m-2.64 16.58s0-.05.01-.08l.07.06s-.03.04-.05.05zm.16-.4s.05.09.07.14c0 .02-.01.04-.02.06s-.03.04-.05.07l-.11-.11c.02-.08.05-.17.07-.25l.03.09m1.62-11.81c.05.68.06 1.37.03 2.05-.03.08-.03-.13-.04-.22-.04.67-.04 1.14-.09 1.81.12 1.21.04 2.44-.24 3.62-.25.04.17-1.07-.03-1.14 0 .38-.06.75-.19 1.11-.03-.3-.05-.07-.09-.29-.07.29-.1.58-.1.87-.02.33-.03.61-.03.61.04.03.09-.08.18-.42 0 .25-.04.5-.13.74-.51-2.18-.64-4.43-.39-6.66-.03-.59-.07.44-.11.11-.02-.86.15-.65.15-1.34l.05.29c.16-.99.23-2.07.44-3.04 0 .03.03.02.05 0 .2.69.38 1.47.54 1.88m.5-3.88s-.04-.1-.07-.15c.07-.1.13-.2.18-.31.1-.05.01.19-.11.45M23 21.78c-.21-.11-.42-.24-.81-.86.51.56.24.13.54.36-.18-.13-.8-1.09-.49-.47-.25-.36-.47-.73-.67-1.12-.29-.39-.59-.84-.8-1.06-.25-.52-.44-1.07-.56-1.64-.63-1.49-1.08-3.05-1.35-4.64v.13c-.13-1.32-.11.61-.27-.76.19.16.03-.83.14-1.27.01-.73.08-1.45.22-2.17.1-.64.4-1.24.85-1.72.02.03 0 .13-.14.33a3.08 3.08 0 0 1 2.22-1.23l-.03.02a2.7 2.7 0 0 1 2.11.81c-.69 1.71-1.15 3.5-1.38 5.33-.32 2.33-.25 4.7.21 7.01.21 1.05.54 2.08.97 3.06-.14.12-.28.21-.18-.09-.05.1-.1.19-.15.29-.14-.12-.28-.22-.44-.3m10.44 4.4c.07-.03.14-.05.2-.08-.38-.06-.74.11-1.52.02-1.31-.08-2.6-.37-3.81-.87-1.02-.76.21-.07.05-.26.71.5.54.28.73.31-.41-.18-.92-.43-1.01-.71-.03-.02-.05-.04-.08-.06.18-.06.33-.11.53-.18.69-.54 1.4-1.01 2.02-1.52v.07c.43.93.11 0 .29.09-.05-.1-.1-.2-.14-.31.05-.04.09-.08.14-.12.03.15.06.3.1.44.12.54.28.95.11.85.59 1.12-.09-.4.27.12.02.04.04.09.06.13-.16-.3-.25-.62-.29-.96.05-.12.5.83.69 1.09l-.25-.11c.16.29.4.52.69.67.21.08.4.17.59.28.58.6.15.38.2.6.23.17.48.33.73.46-.1.03-.21.05-.32.05m2.08 1.12.1-.05c.09.06.08.08-.1.05" class="cls-2"/><path id="Path_61" d="m47.06 24.75-.21.18.48-.27c.68-.61.64-.73.74-.95-.55.55-1.16 1.05-1.81 1.48l.8-.43Z" class="cls-2"/><path id="Path_62" d="m45.83 24.58-.07.13c.17-.09.33-.19.49-.29-.15.04-.29.1-.42.16" class="cls-2"/><path id="Path_63" d="M37.51 26.77c.25-.02-.62-.26-.75-.22.25.09.5.16.75.22" class="cls-2"/><path id="Path_64" d="m40.36 27.9.44-.15q-.54 0-1.05.18c.55-.1.14.04.6-.02" class="cls-2"/><path id="Path_65" d="M34.81 25.77c-.29.02-.65-.46-.86-.43.19.08.75.55.86.43" class="cls-2"/><path id="Path_66" d="M32.13 23.32c-.26-.26-.52-.67-.44-.2.1 0 .24.3.4.64-.1-.08-.18-.18-.26-.29.21.33.45.64.71.92-.27-.41-.57-1.09-.42-1.08" class="cls-2"/><path id="Path_67" d="m31.95 24.89-.18.03c.4.54 0-.07.19.09.1.18.24.33.41.46-.55-.53.04-.1-.42-.58" class="cls-2"/><path id="Path_68" d="M33.59 10.75c.52-.47 1.08-.91 1.67-1.31-.58.29-1.82 1.28-1.67 1.31" class="cls-2"/><path id="Path_69" d="M40.18 24.2c.15-.19.39-.4.31-.43.27-.3.48-.63.64-1-.3.47-.57.89-.95 1.43" class="cls-2"/><path id="Path_70" d="M27.37 4.27c-.29.37-.09.2-.25.5.26-.34.41-.52.25-.5" class="cls-2"/><path id="Path_71" d="M28.01 3.69c-.1.05-.21.09-.31.15h.07z" class="cls-2"/><path id="Path_72" d="M29.92 2.31s-.08.07-.12.1c.13-.07.23-.13.12-.1" class="cls-2"/><path id="Path_73" d="M29.57 2.49v.06s.11-.08.17-.11c-.05.03-.11.04-.17.05" class="cls-2"/><path id="Path_74" d="m30.28 2.27.36-.18c-.16 0-.34-.03-.51-.02-.23.14-.08.1.06.07.15-.01.3 0 .09.13" class="cls-2"/><path id="Path_75" d="M33.09 2.2c.22.04.42.15.59.3.6.31.58.21.57.12-.03-.06.04-.22.67.31a1.6 1.6 0 0 0-.64-.47c-.11-.05-.23-.08-.35-.09-.34-.02-.67-.12-.97-.3.28.16.18.14-.03.08-.21-.04-.51-.12-.62-.13.26.07.52.13.78.17" class="cls-2"/><path id="Path_76" d="M32.85 1.91c-.17-.04-.46-.29-.73-.2-.09.05.52.2.73.2" class="cls-2"/><path id="Path_77" d="m34.93 3.46.11.04c-.1-.14-.21-.27-.35-.38q.135.15.24.33" class="cls-2"/><path id="Path_78" d="m35.58 4.36-.29-.29c.08.09.15.19.22.29.06.11.1.17.07 0" class="cls-2"/><path id="Path_79" d="M36.13 6.46v.2s-.11.41-.14-.1c-.02.4.23.77.15-.09" class="cls-2"/><path id="Path_80" d="M35.44 11.58c-.07.27-.16.53-.24.8l.11-.21c.12-.28.2-.63.13-.59" class="cls-2"/><path id="Path_81" d="M35.89 12.25c.24-.22.25-.76.47-1.29-.23.6-.2.53-.47 1.29" class="cls-2"/><path id="Path_82" d="M34.77 12.98c.07-.25.16-.49.28-.73-.15.21-.25.46-.28.73" class="cls-2"/><path id="Path_83" d="M33.74 15.69c.4-.85.37-1.4.75-1.72.04-.27.06-.54.09-.81-.32.66-.07.59-.3 1.05-.17.22-.05-.09-.17.08-.28.43-.51.88-.68 1.36.13-.1.38-.21.32.04" class="cls-2"/><path id="Path_84" d="M35.47 12.66c-.08.15-.17.29-.27.44.11-.06-.02.3-.1.56.22-.05.29-.72.37-.99" class="cls-2"/><path id="Path_85" d="M29.67 20.96c-.19.25-.42.46-.69.62l.19-.08c.18-.19.61-.51.5-.55" class="cls-2"/><path id="Path_86" d="M22.32 23.79c.2.11.13-.01.06-.13l-.35-.14c.11.08.2.17.28.28" class="cls-2"/><path id="Path_87" d="M20.82 22.01c.41.54.88 1.04 1.42 1.46-.33-.31-.64-.65-.93-1l.17.13c-.22-.19-.45-.38-.65-.59" class="cls-2"/><path id="Path_88" d="M12.03 20.15c.07.08.07-.06.08-.19-.23-.58-.03.3-.08.19" class="cls-2"/></g></svg>